<svg width="51" height="51" viewBox="0 0 51 51" fill="none" xmlns="http://www.w3.org/2000/svg">
<g id="6251c6ea83aa8cb46d33e6ce_Group%2084.svg" clip-path="url(#clip0_1_655)">
<path id="Vector" d="M50.5 25.6875C50.5 11.8804 39.3071 0.6875 25.5 0.6875C11.6929 0.6875 0.5 11.8804 0.5 25.6875C0.5 39.4946 11.6929 50.6875 25.5 50.6875C39.3071 50.6875 50.5 39.4946 50.5 25.6875Z" fill="#FFB4E9"/>
<path id="Vector_2" d="M27.0625 34.2812H23.9375C23.7303 34.2812 23.5316 34.3636 23.3851 34.5101C23.2386 34.6566 23.1562 34.8553 23.1562 35.0625C23.1562 35.2697 23.2386 35.4684 23.3851 35.6149C23.5316 35.7614 23.7303 35.8438 23.9375 35.8438H27.0625C27.2697 35.8438 27.4684 35.7614 27.6149 35.6149C27.7614 35.4684 27.8438 35.2697 27.8438 35.0625C27.8438 34.8553 27.7614 34.6566 27.6149 34.5101C27.4684 34.3636 27.2697 34.2812 27.0625 34.2812Z" fill="#D10094"/>
<path id="Vector_3" d="M34.4482 27.236L31.4953 23.6926C31.4009 22.5254 31.1385 21.3781 30.716 20.286C29.5815 17.3356 27.5757 15.4033 26.4811 14.514C26.2035 14.2906 25.8582 14.1682 25.5019 14.167C25.1456 14.1658 24.7994 14.2859 24.5203 14.5075C23.4114 15.3958 21.38 17.3268 20.234 20.2775C19.7975 21.3943 19.5309 22.5704 19.4432 23.7662L16.5518 27.236C16.3996 27.4199 16.2911 27.6361 16.2348 27.8681C16.1785 28.1001 16.1757 28.3419 16.2268 28.5752L17.4342 34.0081C17.4914 34.2673 17.6138 34.5077 17.7898 34.7065C17.9657 34.9052 18.1895 35.0558 18.4399 35.144C18.6903 35.2322 18.959 35.2551 19.2207 35.2105C19.4825 35.166 19.7285 35.0554 19.9355 34.8893L22.649 32.7185H28.351L31.0644 34.8893C31.3402 35.1112 31.6835 35.2324 32.0375 35.2327C32.2154 35.2325 32.392 35.2022 32.5596 35.1429C32.8103 35.0555 33.0345 34.9054 33.2107 34.7067C33.3867 34.508 33.509 34.2675 33.5658 34.0082L34.7732 28.5753C34.8242 28.342 34.8215 28.1002 34.7652 27.8681C34.7089 27.6361 34.6004 27.4199 34.4482 27.236ZM18.9595 33.6692L17.7521 28.2362L19.5028 26.1354C19.7247 27.9608 20.3478 29.8287 21.372 31.7392L18.9595 33.6692ZM25.5 23.7341C25.2682 23.7341 25.0417 23.6654 24.8489 23.5366C24.6562 23.4079 24.506 23.2248 24.4173 23.0107C24.3286 22.7965 24.3054 22.5609 24.3507 22.3336C24.3958 22.1063 24.5075 21.8975 24.6714 21.7336C24.8353 21.5697 25.044 21.4581 25.2714 21.4129C25.4987 21.3677 25.7343 21.3909 25.9485 21.4796C26.1626 21.5683 26.3456 21.7185 26.4743 21.9112C26.6032 22.1039 26.6718 22.3304 26.6718 22.5622C26.6718 22.873 26.5484 23.1711 26.3286 23.3909C26.1089 23.6107 25.8108 23.7341 25.5 23.7341ZM32.0405 33.6692L29.6235 31.7356C30.6346 29.8116 31.2447 27.9276 31.4539 26.0836L33.2478 28.2362L32.0405 33.6692Z" fill="#D10094"/>
</g>
<defs>
<clipPath id="clip0_1_655">
<rect width="50" height="50" fill="white" transform="translate(0.5 0.6875)"/>
</clipPath>
</defs>
</svg>
